<svg width="18" height="24" viewBox="0 0 18 24" fill="none" xmlns="http://www.w3.org/2000/svg">
<path d="M8.0625 23.5312C7.21875 22.3594 6.1875 20.8594 4.92188 19.0312C3.32812 16.7812 2.29688 15.2812 1.82812 14.4844C1.07812 13.3594 0.609375 12.4219 0.375 11.6719C0.09375 10.9219 0 10.0312 0 9C0 7.40625 0.375 5.90625 1.21875 4.5C2.01562 3.14062 3.09375 2.0625 4.5 1.21875C5.85938 0.421875 7.35938 0 9 0C10.5938 0 12.0938 0.421875 13.5 1.21875C14.8594 2.0625 15.9375 3.14062 16.7812 4.5C17.5781 5.90625 18 7.40625 18 9C18 10.0312 17.8594 10.9219 17.625 11.6719C17.3438 12.4219 16.875 13.3594 16.1719 14.4844C15.6562 15.2812 14.625 16.7812 13.0781 19.0312L9.9375 23.5312C9.70312 23.8594 9.375 24 9 24C8.57812 24 8.25 23.8594 8.0625 23.5312ZM9 12.75C10.0312 12.75 10.875 12.4219 11.625 11.6719C12.375 10.9219 12.75 10.0312 12.75 9C12.75 7.96875 12.375 7.125 11.625 6.375C10.875 5.625 10.0312 5.25 9 5.25C7.96875 5.25 7.07812 5.625 6.32812 6.375C5.57812 7.125 5.25 7.96875 5.25 9C5.25 10.0312 5.57812 10.9219 6.32812 11.6719C7.07812 12.4219 7.96875 12.75 9 12.75Z" fill="#F0421C"/>
</svg>
