<svg width="21" height="21" viewBox="0 0 21 21" fill="none" xmlns="http://www.w3.org/2000/svg"><path d="M19.5 20.9883C19.0781 20.9883 18.7031 20.8477 18.4219 20.5664L9.42188 11.5664C8.8125 11.0039 8.8125 10.0195 9.42188 9.45703L18.4219 0.457031C18.9844 -0.152344 19.9688 -0.152344 20.5312 0.457031C21.1406 1.01953 21.1406 2.00391 20.5312 2.56641L12.6094 10.4883L20.5312 18.457C21.1406 19.0195 21.1406 20.0039 20.5312 20.5664C20.25 20.8477 19.875 20.9883 19.5 20.9883Z" fill="#F0421C"/><path d="M1.48828 20.9883C1.91016 20.9883 2.28516 20.8477 2.56641 20.5664L11.5664 11.5664C12.1758 11.0039 12.1758 10.0195 11.5664 9.45703L2.56641 0.457031C2.00391 -0.152344 1.01953 -0.152344 0.457031 0.457031C-0.152344 1.01953 -0.152344 2.00391 0.457031 2.56641L8.37891 10.4883L0.457031 18.457C-0.152344 19.0195 -0.152344 20.0039 0.457031 20.5664C0.738281 20.8477 1.11328 20.9883 1.48828 20.9883Z" fill="#F0421C"/></svg>
