<svg width="530" height="181" viewBox="0 0 530 181" fill="none" xmlns="http://www.w3.org/2000/svg">
<rect width="530" height="181" fill="#212121"/>
<path d="M229.691 86.0456L218.145 70.7316C219.613 70.4827 220.973 70.0528 222.225 69.4464C223.478 68.8399 224.551 68.091 225.448 67.1972C226.378 66.2695 227.095 65.1992 227.597 63.9842C228.098 62.7352 228.348 61.3255 228.348 59.7552C228.348 58.0785 228.026 56.5602 227.381 55.2049C226.737 53.8133 225.825 52.6344 224.642 51.6705C223.46 50.6704 222.028 49.9033 220.346 49.3671C218.699 48.8308 216.838 48.5638 214.762 48.5638H198.597V86.0433H202.839V71.4805H213.579L224.481 86.0433H229.689L229.691 86.0456ZM224.052 59.9158C224.052 61.1286 223.803 62.2193 223.301 63.1809C222.836 64.1448 222.173 64.9662 221.313 65.645C220.453 66.2876 219.434 66.7877 218.252 67.1452C217.07 67.5027 215.781 67.6814 214.385 67.6814H202.839V52.476H214.437C217.48 52.476 219.843 53.1367 221.526 54.4582C223.208 55.7434 224.05 57.5626 224.05 59.9203L224.052 59.9158ZM239.393 52.3131V47.7628H234.668V52.3131H239.393ZM239.07 86.0456V58.3636H234.936V86.0456H239.07ZM272.937 86.0456V46.9595H268.803V63.6651C268.265 62.88 267.639 62.131 266.924 61.416C266.243 60.701 265.474 60.0765 264.614 59.5425C263.754 59.0062 262.787 58.5786 261.713 58.2572C260.64 57.9359 259.458 57.7753 258.169 57.7753C256.487 57.7753 254.858 58.1147 253.283 58.7935C251.708 59.4361 250.294 60.3819 249.042 61.631C247.789 62.8438 246.786 64.3439 246.035 66.1292C245.284 67.9145 244.907 69.9487 244.907 72.234C244.907 74.5194 245.284 76.5535 246.035 78.3388C246.786 80.1241 247.789 81.6401 249.042 82.8891C250.294 84.1019 251.708 85.0319 253.283 85.6745C254.858 86.3171 256.487 86.6384 258.169 86.6384C259.458 86.6384 260.622 86.4778 261.659 86.1565C262.732 85.8352 263.699 85.3894 264.559 84.817C265.419 84.2467 266.189 83.586 266.869 82.8348C267.586 82.0859 268.231 81.3007 268.803 80.4793V86.0479L272.937 86.0456ZM268.964 72.1775C268.964 73.784 268.678 75.266 268.104 76.6214C267.566 77.9428 266.815 79.0674 265.848 79.9951C264.918 80.9228 263.844 81.6559 262.626 82.1899C261.443 82.69 260.209 82.9389 258.92 82.9389C257.595 82.9389 256.342 82.69 255.162 82.1899C253.98 81.6899 252.943 80.9771 252.049 80.0472C251.154 79.0832 250.437 77.9406 249.9 76.6214C249.398 75.3 249.148 73.8202 249.148 72.1775C249.148 70.5008 249.398 69.0006 249.9 67.6792C250.437 66.3238 251.134 65.1992 251.994 64.3055C252.888 63.3778 253.928 62.6809 255.108 62.217C256.29 61.7169 257.561 61.468 258.92 61.468C260.209 61.468 261.443 61.735 262.626 62.2713C263.842 62.7714 264.918 63.4841 265.848 64.4141C266.815 65.3418 267.566 66.4664 268.104 67.7878C268.676 69.1092 268.964 70.5732 268.964 72.1775ZM282.5 73.7297H304.517C304.553 73.4808 304.571 73.2477 304.571 73.0328V72.4444C304.571 70.4103 304.286 68.5005 303.711 66.7153C303.14 64.93 302.298 63.3778 301.188 62.0563C300.078 60.7349 298.717 59.7009 297.108 58.9519C295.497 58.1667 293.672 57.773 291.63 57.773C289.696 57.773 287.906 58.1486 286.26 58.8976C284.649 59.6466 283.254 60.6829 282.071 62.002C280.889 63.2873 279.959 64.8214 279.278 66.6067C278.633 68.3557 278.311 70.2293 278.311 72.2295C278.311 74.3723 278.67 76.334 279.384 78.1193C280.136 79.9046 281.139 81.4387 282.391 82.7239C283.644 83.973 285.112 84.955 286.794 85.6677C288.478 86.3465 290.266 86.686 292.163 86.686C294.811 86.686 297.033 86.2221 298.821 85.2944C300.612 84.3305 302.205 83.0634 303.6 81.493L301.022 79.1896C299.876 80.3685 298.605 81.3143 297.21 82.027C295.851 82.7398 294.203 83.0973 292.27 83.0973C291.053 83.0973 289.889 82.9004 288.779 82.509C287.67 82.0813 286.667 81.4749 285.773 80.6875C284.878 79.8661 284.143 78.8841 283.571 77.7437C282.999 76.5648 282.641 75.2276 282.498 73.7274L282.5 73.7297ZM282.5 70.6773C282.643 69.3219 282.965 68.0706 283.467 66.9302C283.968 65.7876 284.613 64.8055 285.4 63.9864C286.188 63.1289 287.1 62.4704 288.139 62.0043C289.179 61.5042 290.307 61.2553 291.523 61.2553C292.919 61.2553 294.137 61.5223 295.174 62.0586C296.248 62.5587 297.144 63.2375 297.859 64.0928C298.61 64.9503 299.184 65.9482 299.577 67.0909C300.006 68.2335 300.276 69.4283 300.382 70.6773H282.5Z" fill="white"/>
<path d="M215.409 133.538C222.659 133.538 226.955 130.967 230.819 126.845L225.557 121.543C222.605 124.22 219.972 125.933 215.676 125.933C209.232 125.933 204.775 120.579 204.775 114.153V114.047C204.775 107.621 209.338 102.373 215.676 102.373C219.434 102.373 222.389 103.98 225.289 106.602L230.552 100.552C227.061 97.1262 222.818 94.7684 215.731 94.7684C204.185 94.7684 196.131 103.496 196.131 114.151V114.257C196.131 125.019 204.348 133.533 215.409 133.533V133.538ZM234.809 132.895H242.972V93.809H234.809V132.895ZM256.651 133.431C260.624 133.431 263.363 131.985 265.349 129.791V132.895H273.244V116.244C273.244 112.388 272.277 109.229 270.13 107.089C268.09 105.055 264.868 103.876 260.411 103.876C255.525 103.876 252.41 104.785 249.242 106.179L251.282 112.39C253.914 111.426 256.115 110.838 259.229 110.838C263.309 110.838 265.404 112.712 265.404 116.085V116.567C263.363 115.87 261.269 115.389 258.369 115.389C251.549 115.389 246.77 118.28 246.77 124.543V124.65C246.77 130.325 251.227 133.431 256.651 133.431ZM259.122 127.809C256.49 127.809 254.665 126.523 254.665 124.328V124.222C254.665 121.652 256.814 120.26 260.304 120.26C262.292 120.26 264.117 120.688 265.512 121.33V122.776C265.512 125.72 262.935 127.809 259.122 127.809ZM291.707 133.538C297.453 133.538 300.675 131.343 303.466 128.29L298.687 123.471C296.699 125.344 294.82 126.523 292.081 126.523C287.624 126.523 284.779 122.989 284.779 118.599V118.493C284.779 114.264 287.679 110.675 291.759 110.675C294.659 110.675 296.484 111.906 298.311 113.834L303.305 108.48C300.621 105.482 297.237 103.661 291.814 103.661C283.006 103.661 276.725 110.408 276.725 118.599V118.706C276.725 126.899 283.061 133.538 291.707 133.538ZM306.65 132.895H314.813V124.168L317.659 121.17L325.177 132.895H334.52L323.189 115.493L334.143 104.195H324.369L314.811 114.635V93.8068H306.648V132.893L306.65 132.895ZM343.919 133.431C347.89 133.431 350.629 131.985 352.617 129.791V132.895H360.512V116.244C360.512 112.388 359.545 109.229 357.399 107.089C355.359 105.055 352.136 103.876 347.679 103.876C342.793 103.876 339.68 104.785 336.512 106.179L338.552 112.39C341.184 111.426 343.386 110.838 346.497 110.838C350.577 110.838 352.672 112.712 352.672 116.085V116.567C350.632 115.87 348.537 115.389 345.637 115.389C338.818 115.389 334.038 118.28 334.038 124.543V124.65C334.038 130.325 338.495 133.431 343.919 133.431ZM346.388 127.809C343.758 127.809 341.933 126.523 341.933 124.328V124.222C341.933 121.652 344.082 120.26 347.57 120.26C349.558 120.26 351.383 120.688 352.778 121.33V122.776C352.778 125.72 350.2 127.809 346.388 127.809ZM365.387 132.895H373.549V116.886C373.549 113.031 375.428 111.051 378.489 111.051C381.551 111.051 383.269 113.033 383.269 116.886V132.895H391.431V116.886C391.431 113.031 393.31 111.051 396.372 111.051C399.433 111.051 401.151 113.033 401.151 116.886V132.895H409.313V114.207C409.313 107.299 405.662 103.659 399.594 103.659C395.675 103.659 392.666 105.265 390.142 108.209C388.638 105.317 385.792 103.659 382.034 103.659C377.899 103.659 375.428 105.853 373.549 108.263V104.195H365.387V132.895ZM422.425 133.431C426.399 133.431 429.138 131.985 431.124 129.791V132.895H439.018V116.244C439.018 112.388 438.052 109.229 435.905 107.089C433.865 105.055 430.643 103.876 426.186 103.876C421.3 103.876 418.184 104.785 415.016 106.179L417.056 112.39C419.689 111.426 421.89 110.838 425.003 110.838C429.083 110.838 431.178 112.712 431.178 116.085V116.567C429.138 115.87 427.043 115.389 424.143 115.389C417.324 115.389 412.545 118.28 412.545 124.543V124.65C412.545 130.325 417.002 133.431 422.425 133.431ZM424.897 127.809C422.264 127.809 420.44 126.523 420.44 124.328V124.222C420.44 121.652 422.589 120.26 426.079 120.26C428.067 120.26 429.891 120.688 431.287 121.33V122.776C431.287 125.72 428.709 127.809 424.897 127.809ZM453.991 133.431C460.221 133.431 465 130.54 465 124.168V124.061C465 118.814 460.327 116.886 456.301 115.549C453.188 114.479 450.449 113.728 450.449 112.123V112.017C450.449 110.892 451.47 110.035 453.456 110.035C455.55 110.035 458.396 111.053 461.242 112.712L464.355 107.089C461.242 105 457.266 103.769 453.615 103.769C447.814 103.769 443.09 107.035 443.09 112.872V112.979C443.09 118.547 447.653 120.421 451.681 121.6C454.849 122.564 457.643 123.152 457.643 124.919V125.025C457.643 126.311 456.569 127.168 454.207 127.168C451.522 127.168 448.245 125.989 445.132 123.742L441.642 129.096C445.454 132.094 449.966 133.434 453.994 133.434L453.991 133.431Z" fill="white"/>
<path d="M125.193 39.0329C113.634 38.6252 102.872 42.0249 94.0758 48.0699C88.9268 51.6031 84.4549 56.0469 80.8851 61.1588C80.4284 61.8133 80.9033 62.7125 81.7031 62.7125H94.1667C96.4027 62.7125 97.7615 61.8813 99.493 60.4408L99.518 60.4159C106.067 54.9824 113.949 51.9814 122.33 51.7481C122.684 51.7345 123.032 51.7322 123.386 51.7322C137.029 51.7322 149.697 59.2834 156.444 71.4346C157.505 73.3394 157.491 75.6157 156.414 77.5136C155.324 79.423 153.388 80.569 151.229 80.569C150.156 80.569 149.104 80.2678 148.198 79.7151C147.307 79.1852 146.559 78.4038 146.025 77.4706L146.021 77.4548L146.007 77.4457C141.365 69.1358 132.7 63.974 123.389 63.974C122.857 63.974 122.321 63.9876 121.787 64.0216C117.674 64.273 113.704 65.5323 110.191 67.6636C107.773 69.1312 105.001 69.8696 102.19 69.8696H49.0183C47.8094 69.8696 47.6094 71.5977 48.7842 71.874L62.4521 75.0947C66.106 75.9554 69.3804 78.0074 71.7822 80.9518L72.298 81.5746C72.3367 81.6222 72.3708 81.6675 72.4162 81.7105C72.7025 82.0457 73.0343 82.3379 73.3956 82.5802C74.2295 83.1578 75.2134 83.4681 76.2405 83.4681H94.6871V83.4545H102.683C102.742 83.4545 102.806 83.4545 102.867 83.4681C104.719 83.5609 106.189 85.1328 106.189 87.0466C106.189 88.0364 105.801 88.931 105.167 89.5811C104.572 90.1926 103.765 90.5821 102.867 90.6252C102.808 90.6342 102.745 90.6342 102.683 90.6342H94.6871V90.6252H83.6505L83.6459 90.5912H53.681C52.5176 90.5912 52.3017 92.2854 53.4265 92.5911L65.5334 95.8254C68.2034 96.5388 70.6438 98.0699 72.5934 100.253C72.7639 100.437 72.9207 100.622 73.0797 100.813C73.3183 101.098 73.5478 101.395 73.766 101.701L74.0432 102.079C74.5295 102.754 75.1543 103.288 75.861 103.657C76.5723 104.022 77.363 104.226 78.181 104.226H93.0169C100.686 104.24 100.257 104.785 104.808 109.261L104.851 109.311C109.782 114.447 116.365 117.27 123.391 117.27C132.707 117.27 141.369 112.108 146.003 103.798C147.548 101.03 151.011 99.7709 154.09 101.413C154.646 101.71 155.153 102.108 155.58 102.579C157.437 104.654 157.73 107.499 156.453 109.802C149.704 121.962 137.036 129.514 123.393 129.514C111.091 129.514 99.4953 123.376 92.3761 113.093C91.8035 112.309 90.9605 111.752 90.0039 111.573C89.1018 111.406 88.1497 111.417 87.4816 111.392L85.6069 111.383H77.1244L76.111 111.388H75.9156L65.7334 111.422C64.4813 111.431 64.2518 113.247 65.4561 113.573L65.4607 113.578L68.6328 114.52L75.1816 116.418C76.6336 116.83 78.0174 117.525 79.2831 118.456C79.8489 118.878 80.3943 119.344 80.9101 119.861C81.8258 121.181 82.8097 122.454 83.8527 123.677C93.3305 134.877 107.512 142 123.33 142C136.627 142 148.768 136.967 157.937 128.703L157.941 128.698C168.814 118.905 175.502 104.572 174.965 88.7295C174.054 61.8292 152.186 39.9932 125.2 39.0397L125.193 39.0329Z" fill="#F0421C"/>
</svg>
