<svg width="122" height="22" viewBox="0 0 122 22" fill="none" xmlns="http://www.w3.org/2000/svg">
<g clip-path="url(#clip0_1544_3668)">
<path d="M14.4498 0.0192871C14.7501 0.304469 15.1091 0.548254 15.3395 0.881734C17.347 3.80485 19.3341 6.74177 21.3213 9.67869C21.4455 9.86268 21.5358 10.0743 21.7435 10.4606C21.2129 10.5227 20.7996 10.6101 20.3864 10.6147C17.4666 10.6515 14.6191 11.1138 11.8574 12.0797C10.5319 12.5443 9.27414 13.1423 8.29185 14.2163C7.13569 15.4812 7.05892 16.96 8.35508 18.0525C9.31705 18.862 10.498 19.4531 11.661 19.9453C12.6884 20.3799 13.8265 20.5455 15.1272 20.8836C14.7004 20.948 14.4543 21.0147 14.2104 21.0147C10.0329 21.0193 5.85533 21.0285 1.67553 20.9963C1.17197 20.9917 0.670665 20.7525 0 20.58C0.311622 19.9361 0.460659 19.5037 0.704537 19.1426C4.78498 13.1078 8.87219 7.07985 12.973 1.06342C13.2439 0.665547 13.6527 0.364266 13.9981 0.0192871C14.1494 0.0192871 14.2985 0.0192871 14.4498 0.0192871Z" fill="white"/>
<path d="M95.6367 7.96077C94.6205 7.29151 93.6472 6.65215 92.5791 5.9461V9.98235H86.5477C86.2835 9.48328 86.0012 8.95431 85.7031 8.38855H81.9908C81.7062 8.90601 81.4195 9.43268 81.0875 10.0352H75.6567C74.3064 8.83702 73.0983 7.76758 71.7253 6.55096V9.97775H68.9365V3.24607H71.7411C71.6937 4.15681 71.6485 5.04685 71.6011 5.9369C71.6801 5.9875 71.7592 6.03809 71.8405 6.08639C72.9108 5.15955 73.9789 4.2327 75.1486 3.22077H78.4613C76.9597 4.3017 75.6138 5.26764 74.1551 6.31867C75.5822 7.40421 76.8964 8.40465 78.3236 9.49018C79.9607 7.35131 81.5482 5.27684 83.1266 3.21387H85.3757C86.6945 5.32514 88.0539 7.5008 89.411 9.67417C89.5194 9.63967 89.6278 9.60747 89.7339 9.57297C90.1246 7.80208 89.8287 5.99669 89.9055 4.2212C89.5645 3.92452 89.2823 3.68074 88.8374 3.29666H91.9153C93.1008 4.15221 94.3247 5.03535 95.6457 5.9875C96.8922 5.08595 98.1093 4.20741 99.4393 3.24377H102.47C102.052 3.61864 101.781 3.85783 101.478 4.12921V9.46028C101.557 9.50398 101.637 9.54538 101.718 9.58907C103.468 7.5859 104.922 5.32744 106.674 3.23687H108.926C110.263 5.37803 111.651 7.5997 113.133 9.97085H110.104C109.822 9.45108 109.535 8.92441 109.237 8.37705H105.566C105.292 8.84162 104.99 9.35449 104.608 10.003H98.71V5.9783C97.6825 6.64065 96.6754 7.29151 95.6412 7.95847L95.6367 7.96077ZM82.9302 7.00173H84.9218C84.6441 6.29108 84.416 5.70691 84.1202 4.95256C83.6731 5.72301 83.3389 6.29568 82.9302 7.00173ZM107.672 4.91116C107.198 5.74601 106.871 6.32557 106.48 7.01553H108.467C108.205 6.32557 107.984 5.73681 107.672 4.91116Z" fill="white"/>
<path d="M40.1632 8.39546C39.9735 9.14522 39.829 9.72248 39.6325 10.4998C38.4854 10.67 37.3179 10.8862 36.1414 11.0104C34.2853 11.2059 32.4449 11.0081 30.7332 10.2515C29.8954 9.88117 29.0757 9.32001 28.4367 8.65535C27.3234 7.49622 27.346 5.74603 28.4864 4.6214C29.1706 3.94524 30.0129 3.35188 30.8913 2.9793C33.6417 1.80867 36.5095 1.80177 39.5331 2.34914C39.628 3.0207 39.7228 3.67846 39.8312 4.44201C38.6886 4.14533 37.7041 3.83255 36.6969 3.64166C35.2517 3.37028 33.8404 3.57266 32.5533 4.31552C30.5616 5.46315 30.5255 7.45022 32.4946 8.63465C34.1972 9.65809 36.0421 9.80298 37.9299 9.23031C38.6073 9.02563 39.2622 8.73814 40.1654 8.39777L40.1632 8.39546Z" fill="white"/>
<path d="M113.81 10.6538V8.62762C115.468 9.08759 117.048 10.4008 118.92 8.73112C118.381 8.39764 118.01 8.10325 117.59 7.92386C116.969 7.65708 116.299 7.50759 115.68 7.23621C115.029 6.95103 114.357 6.65894 113.794 6.23117C112.426 5.18933 112.516 3.60013 114.052 2.82048C114.937 2.37201 115.962 2.07993 116.947 2.00173C118.272 1.89364 119.62 2.05923 121.036 2.10982V4.0785C119.613 3.68063 118.243 3.13556 116.836 3.74962C116.59 3.85772 116.457 4.23489 116.292 4.45798C116.773 5.35032 117.568 5.42622 118.247 5.7091C119.112 6.07018 120.031 6.34846 120.822 6.83833C122.445 7.84337 122.371 9.20259 120.72 10.1915C119.078 11.1736 115.863 11.415 113.81 10.6515V10.6538Z" fill="white"/>
<path d="M22.2989 11.238C23.4347 12.9123 24.4328 14.3819 25.5619 16.047C24.6699 16.2195 23.9925 16.3989 23.306 16.4771C20.8989 16.7554 18.4962 16.7255 16.1432 16.0631C15.5335 15.8907 14.9329 15.6216 14.3909 15.2927C13.3341 14.651 13.2077 13.6322 14.2577 13.0319C15.4116 12.3719 16.7258 11.9119 18.0243 11.6336C19.4017 11.3392 20.8447 11.3622 22.2989 11.2426V11.238Z" fill="white"/>
<path d="M50.3878 10.0376H47.249C49.042 7.68481 50.7333 5.46774 52.4382 3.22998H54.7167C56.0738 5.40335 57.4603 7.62501 58.9371 9.99156H55.9044C55.6177 9.4534 55.3535 8.95433 55.0599 8.40466H51.334C51.063 8.87153 50.7627 9.3867 50.3856 10.0376H50.3878ZM52.2508 7.03164H54.2763C54.0008 6.33249 53.7615 5.72993 53.4544 4.95257C53.0073 5.72533 52.6708 6.30259 52.2485 7.03164H52.2508Z" fill="white"/>
<path d="M67.5922 3.30345C67.6622 3.84621 67.7276 4.35218 67.8044 4.94555C66.8312 4.71556 66.0092 4.48098 65.1737 4.33608C63.9814 4.1314 62.8456 4.36138 61.8317 5.03754C60.5649 5.88389 60.5468 7.2592 61.8046 8.12625C63.1323 9.04159 64.6069 9.16119 66.1289 8.77481C66.707 8.62762 67.2647 8.38843 68.0573 8.11245C67.9264 8.69201 67.8247 9.13589 67.6983 9.69245C64.8847 10.4123 62.1162 10.6584 59.5419 9.01629C57.6451 7.80657 57.6835 5.6723 59.551 4.42118C61.4591 3.14246 63.6178 2.92167 65.8308 3.05736C66.3863 3.09186 66.9373 3.20915 67.5944 3.30575L67.5922 3.30345Z" fill="white"/>
<path d="M41.2425 3.23682H43.9884V8.82087C45.1716 9.24404 46.2917 8.54259 47.6849 8.46899C47.3304 9.06006 47.0549 9.51773 46.7456 10.0283H41.2402V3.23682H41.2425Z" fill="white"/>
<path d="M81.9229 16.0838V14.0208C82.4309 13.9771 82.878 13.938 83.3884 13.8943V18.1996C83.0022 18.2249 82.6455 18.2456 82.3022 18.2686C81.4238 17.4752 80.586 16.7185 79.6421 15.863V18.1789H78.1744C78.1111 16.8082 78.0479 15.426 77.9824 13.9633H79.2605C80.0757 14.7199 80.8751 15.4605 81.6745 16.201C81.758 16.1619 81.8393 16.1205 81.9229 16.0815V16.0838Z" fill="white"/>
<path d="M60.9916 18.4525C59.989 18.333 59.1445 18.0547 58.449 17.4061C57.4554 16.4793 57.5435 15.2189 58.6951 14.5313C60.1629 13.655 61.7097 13.6343 63.191 14.4761C64.5391 15.2419 64.582 16.7944 63.261 17.6016C62.5813 18.0179 61.7526 18.1766 60.9916 18.4525ZM62.6559 17.0335C62.8433 15.465 61.4952 14.2576 60.0816 14.6601C59.2325 14.9016 58.957 15.8123 59.5058 16.5667C60.1719 17.482 61.5562 17.7051 62.6559 17.0312V17.0335Z" fill="white"/>
<path d="M68.1455 13.9702H69.6065V16.891C70.2659 17.7397 70.9162 17.4016 71.6524 17.0566V14.053H73.1428V18.1951C71.9482 18.1951 70.7062 18.287 69.4846 18.1652C68.5971 18.0755 68.1771 17.4039 68.15 16.4587C68.1274 15.6606 68.1455 14.8626 68.1455 13.9702Z" fill="white"/>
<path d="M53.5064 17.9973C52.147 18.4112 50.8689 18.4986 49.6089 17.8938C48.9179 17.5626 48.4482 17.0221 48.3985 16.2172C48.3466 15.3915 48.8095 14.835 49.4734 14.467C50.7108 13.777 52.0093 13.5861 53.4341 14.053C53.477 14.3681 53.5154 14.651 53.5628 14.989C53.3754 14.989 53.2738 14.9959 53.1722 14.989C52.4383 14.9361 51.6773 14.743 50.9773 14.8787C50.5889 14.9545 50.1553 15.518 49.9995 15.9573C49.7963 16.5345 50.2366 17.0865 50.7537 17.19C51.6321 17.3648 52.5512 17.3303 53.5538 17.3901C53.5516 17.4269 53.529 17.696 53.5064 17.9996V17.9973Z" fill="white"/>
<path d="M99.3331 18.1974H97.8924V16.2564C97.294 15.5871 96.6707 14.888 95.8623 13.9841C96.6052 13.9381 97.0998 13.9059 97.5266 13.8806C97.9082 14.3475 98.213 14.7224 98.6353 15.2352C98.9672 14.7592 99.2314 14.3774 99.5408 13.9335H101.191C100.541 14.7615 100.022 15.4215 99.4279 16.1759C99.4008 16.7508 99.3692 17.427 99.3331 18.1928V18.1974Z" fill="white"/>
<path d="M87.1211 14.7061C87.2385 14.4784 87.3582 14.2507 87.4576 14.0598H91.9558C91.7932 14.3726 91.6938 14.5612 91.5809 14.782C91.1519 14.7406 90.7567 14.7015 90.2712 14.6555V18.1812H88.686V14.6256C88.1147 14.7061 87.6811 14.7682 87.2475 14.8303C87.2069 14.7889 87.164 14.7475 87.1234 14.7061H87.1211Z" fill="white"/>
</g>
<defs>
<clipPath id="clip0_1544_3668">
<rect width="122" height="21" fill="white" transform="translate(0 0.0192871)"/>
</clipPath>
</defs>
</svg>
