<?xml version="1.0" encoding="UTF-8"?><svg id="a" xmlns="http://www.w3.org/2000/svg" viewBox="0 0 421 103"><defs><style>.b{fill:#fff;}.c{fill:#f0421c;}.d{fill:#212121;}</style></defs><rect class="d" width="421" height="103"/><path class="b" d="m185.69,47.05l-11.55-15.31c1.47-.25,2.83-.68,4.08-1.29,1.25-.61,2.33-1.36,3.22-2.25.93-.93,1.65-2,2.15-3.21.5-1.25.75-2.66.75-4.23,0-1.68-.32-3.19-.97-4.55-.64-1.39-1.56-2.57-2.74-3.53-1.18-1-2.61-1.77-4.3-2.3-1.65-.54-3.51-.8-5.58-.8h-16.16v37.48h4.24v-14.56h10.74l10.9,14.56h5.21Zm-5.64-26.13c0,1.21-.25,2.3-.75,3.27-.46.96-1.13,1.79-1.99,2.46-.86.64-1.88,1.14-3.06,1.5-1.18.36-2.47.54-3.87.54h-11.55v-15.21h11.6c3.04,0,5.41.66,7.09,1.98,1.68,1.29,2.52,3.1,2.52,5.46h0Zm15.34-7.61v-4.55h-4.73v4.55h4.73Zm-.32,33.73v-27.68h-4.13v27.68h4.13Zm33.87,0V7.96h-4.13v16.71c-.54-.79-1.16-1.53-1.88-2.25-.68-.72-1.45-1.34-2.31-1.87-.86-.54-1.83-.96-2.9-1.29-1.07-.32-2.26-.48-3.54-.48-1.68,0-3.31.34-4.89,1.02-1.58.64-2.99,1.59-4.24,2.84-1.25,1.21-2.26,2.71-3.01,4.5-.75,1.79-1.13,3.82-1.13,6.1s.38,4.32,1.13,6.1c.75,1.79,1.75,3.3,3.01,4.55,1.25,1.21,2.67,2.14,4.24,2.79,1.57.64,3.2.96,4.89.96,1.29,0,2.45-.16,3.49-.48,1.07-.32,2.04-.77,2.9-1.34.86-.57,1.63-1.23,2.31-1.98.72-.75,1.36-1.53,1.93-2.36v5.57h4.13Zm-3.97-13.87c0,1.61-.29,3.09-.86,4.44-.54,1.32-1.29,2.45-2.26,3.37-.93.93-2,1.66-3.22,2.19-1.18.5-2.42.75-3.71.75s-2.58-.25-3.76-.75c-1.18-.5-2.22-1.21-3.11-2.14-.89-.96-1.61-2.11-2.15-3.43-.5-1.32-.75-2.8-.75-4.44s.25-3.18.75-4.5c.54-1.36,1.23-2.48,2.09-3.37.89-.93,1.93-1.62,3.11-2.09,1.18-.5,2.45-.75,3.81-.75,1.29,0,2.52.27,3.71.8,1.22.5,2.29,1.21,3.22,2.14.97.93,1.72,2.05,2.26,3.37.57,1.32.86,2.79.86,4.39Zm13.54,1.55h22.02c.04-.25.05-.48.05-.7v-.59c0-2.03-.29-3.94-.86-5.73-.57-1.79-1.41-3.34-2.52-4.66-1.11-1.32-2.47-2.36-4.08-3.1-1.61-.79-3.44-1.18-5.48-1.18-1.93,0-3.72.38-5.37,1.12-1.61.75-3.01,1.79-4.19,3.1-1.18,1.29-2.11,2.82-2.79,4.6-.65,1.75-.97,3.62-.97,5.62,0,2.14.36,4.1,1.07,5.89.75,1.79,1.76,3.32,3.01,4.6,1.25,1.25,2.72,2.23,4.4,2.94,1.68.68,3.47,1.02,5.37,1.02,2.65,0,4.87-.46,6.66-1.39,1.79-.96,3.38-2.23,4.78-3.8l-2.58-2.3c-1.15,1.18-2.42,2.12-3.81,2.84-1.36.71-3.01,1.07-4.94,1.07-1.22,0-2.38-.2-3.49-.59-1.11-.43-2.11-1.03-3.01-1.82-.9-.82-1.63-1.8-2.2-2.94-.57-1.18-.93-2.52-1.07-4.02h0Zm0-3.05c.14-1.36.46-2.61.97-3.75.5-1.14,1.15-2.12,1.93-2.94.79-.86,1.7-1.52,2.74-1.98,1.04-.5,2.17-.75,3.38-.75,1.4,0,2.61.27,3.65.8,1.07.5,1.97,1.18,2.68,2.03.75.86,1.32,1.86,1.72,3,.43,1.14.7,2.34.8,3.59h-17.88Z"/><path class="b" d="m171.41,94.54c7.25,0,11.55-2.57,15.41-6.69l-5.26-5.3c-2.95,2.68-5.59,4.39-9.88,4.39-6.44,0-10.9-5.35-10.9-11.78v-.11c0-6.43,4.56-11.67,10.9-11.67,3.76,0,6.71,1.61,9.61,4.23l5.26-6.05c-3.49-3.43-7.73-5.78-14.82-5.78-11.55,0-19.6,8.73-19.6,19.38v.11c0,10.76,8.22,19.28,19.28,19.28h0Zm19.4-.64h8.16v-39.09h-8.16v39.09Zm21.84.54c3.97,0,6.71-1.45,8.7-3.64v3.1h7.89v-16.65c0-3.86-.97-7.02-3.11-9.16-2.04-2.03-5.26-3.21-9.72-3.21-4.89,0-8,.91-11.17,2.3l2.04,6.21c2.63-.96,4.83-1.55,7.95-1.55,4.08,0,6.17,1.87,6.17,5.25v.48c-2.04-.7-4.13-1.18-7.04-1.18-6.82,0-11.6,2.89-11.6,9.15v.11c0,5.67,4.46,8.78,9.88,8.78Zm2.47-5.62c-2.63,0-4.46-1.29-4.46-3.48v-.11c0-2.57,2.15-3.96,5.64-3.96,1.99,0,3.81.43,5.21,1.07v1.45c0,2.94-2.58,5.03-6.39,5.03Zm32.58,5.73c5.75,0,8.97-2.19,11.76-5.25l-4.78-4.82c-1.99,1.87-3.87,3.05-6.61,3.05-4.46,0-7.3-3.53-7.3-7.92v-.11c0-4.23,2.9-7.82,6.98-7.82,2.9,0,4.73,1.23,6.55,3.16l4.99-5.35c-2.68-3-6.07-4.82-11.49-4.82-8.81,0-15.09,6.75-15.09,14.94v.11c0,8.19,6.34,14.83,14.98,14.83Zm14.94-.64h8.16v-8.73l2.85-3,7.52,11.73h9.34l-11.33-17.4,10.95-11.3h-9.77l-9.56,10.44v-20.83h-8.16v39.09h0Zm37.27.54c3.97,0,6.71-1.45,8.7-3.64v3.1h7.89v-16.65c0-3.86-.97-7.02-3.11-9.16-2.04-2.03-5.26-3.21-9.72-3.21-4.89,0-8,.91-11.17,2.3l2.04,6.21c2.63-.96,4.83-1.55,7.95-1.55,4.08,0,6.17,1.87,6.17,5.25v.48c-2.04-.7-4.14-1.18-7.04-1.18-6.82,0-11.6,2.89-11.6,9.15v.11c0,5.67,4.46,8.78,9.88,8.78Zm2.47-5.62c-2.63,0-4.45-1.29-4.45-3.48v-.11c0-2.57,2.15-3.96,5.64-3.96,1.99,0,3.81.43,5.21,1.07v1.45c0,2.94-2.58,5.03-6.39,5.03Zm19,5.09h8.16v-16.01c0-3.86,1.88-5.83,4.94-5.83s4.78,1.98,4.78,5.83v16.01h8.16v-16.01c0-3.86,1.88-5.83,4.94-5.83s4.78,1.98,4.78,5.83v16.01h8.16v-18.69c0-6.91-3.65-10.55-9.72-10.55-3.92,0-6.93,1.61-9.45,4.55-1.5-2.89-4.35-4.55-8.11-4.55-4.14,0-6.61,2.19-8.48,4.6v-4.07h-8.16v28.7Zm57.04.54c3.97,0,6.71-1.45,8.7-3.64v3.1h7.89v-16.65c0-3.86-.97-7.02-3.11-9.16-2.04-2.03-5.26-3.21-9.72-3.21-4.89,0-8,.91-11.17,2.3l2.04,6.21c2.63-.96,4.83-1.55,7.95-1.55,4.08,0,6.18,1.87,6.18,5.25v.48c-2.04-.7-4.14-1.18-7.04-1.18-6.82,0-11.6,2.89-11.6,9.15v.11c0,5.67,4.46,8.78,9.88,8.78Zm2.47-5.62c-2.63,0-4.46-1.29-4.46-3.48v-.11c0-2.57,2.15-3.96,5.64-3.96,1.99,0,3.81.43,5.21,1.07v1.45c0,2.94-2.58,5.03-6.39,5.03Zm29.09,5.62c6.23,0,11.01-2.89,11.01-9.26v-.11c0-5.25-4.67-7.17-8.7-8.51-3.11-1.07-5.85-1.82-5.85-3.43v-.11c0-1.12,1.02-1.98,3.01-1.98,2.09,0,4.94,1.02,7.79,2.68l3.11-5.62c-3.11-2.09-7.09-3.32-10.74-3.32-5.8,0-10.52,3.27-10.52,9.1v.11c0,5.57,4.56,7.44,8.59,8.62,3.17.96,5.96,1.55,5.96,3.32v.11c0,1.29-1.07,2.14-3.44,2.14-2.68,0-5.96-1.18-9.08-3.43l-3.49,5.35c3.81,3,8.32,4.34,12.35,4.34h0Z"/><path class="c" d="m81.19.03c-11.56-.41-22.32,2.99-31.12,9.04-5.15,3.53-9.62,7.98-13.19,13.09-.46.65.02,1.55.82,1.55h12.46c2.24,0,3.59-.83,5.33-2.27l.03-.02c6.55-5.43,14.43-8.43,22.81-8.67.35-.01.7-.02,1.06-.02,13.64,0,26.31,7.55,33.06,19.7,1.06,1.9,1.05,4.18-.03,6.08-1.09,1.91-3.03,3.06-5.18,3.06-1.07,0-2.12-.3-3.03-.85-.89-.53-1.64-1.31-2.17-2.24v-.02s-.02,0-.02,0c-4.64-8.31-13.31-13.47-22.62-13.47-.53,0-1.07.01-1.6.05-4.11.25-8.08,1.51-11.6,3.64-2.42,1.47-5.19,2.21-8,2.21H5.02c-1.21,0-1.41,1.73-.23,2l13.67,3.22c3.65.86,6.93,2.91,9.33,5.86l.52.62s.07.09.12.14c.29.34.62.63.98.87.83.58,1.82.89,2.84.89h18.45s8-.01,8-.01c.06,0,.12,0,.18.01,1.85.09,3.32,1.66,3.32,3.58,0,.99-.39,1.88-1.02,2.53-.6.61-1.4,1-2.3,1.04-.06,0-.12,0-.18,0h-8s-11.04,0-11.04,0v-.03H9.68c-1.16,0-1.38,1.69-.25,2l12.11,3.23c2.67.71,5.11,2.24,7.06,4.43.17.18.33.37.49.56.24.28.47.58.69.89l.28.38c.49.67,1.11,1.21,1.82,1.58.71.37,1.5.57,2.32.57h14.84c7.67.01,7.24.56,11.79,5.04l.04.05c4.93,5.14,11.51,7.96,18.54,7.96,9.32,0,17.98-5.16,22.61-13.47,1.54-2.77,5.01-4.03,8.09-2.38.56.3,1.06.69,1.49,1.17,1.86,2.07,2.15,4.92.87,7.22-6.75,12.16-19.42,19.71-33.06,19.71-12.3,0-23.9-6.14-31.02-16.42-.57-.78-1.42-1.34-2.37-1.52-.9-.17-1.85-.16-2.52-.18h-1.87s-8.48,0-8.48,0h-1.01s-.2,0-.2,0l-10.18.03c-1.25,0-1.48,1.83-.28,2.15h0s3.17.95,3.17.95l6.55,1.9c1.45.41,2.84,1.11,4.1,2.04.57.42,1.11.89,1.63,1.4.92,1.32,1.9,2.59,2.94,3.82,9.48,11.2,23.66,18.32,39.48,18.32,13.3,0,25.44-5.03,34.61-13.3h0c10.87-9.8,17.56-24.13,17.02-39.97C130.05,22.83,108.19.99,81.2.04h0Z"/></svg>