<svg width="626" height="155" viewBox="0 0 626 155" fill="none" xmlns="http://www.w3.org/2000/svg">
<path d="M272.755 70.7968L255.422 47.7514C257.626 47.3769 259.667 46.7299 261.547 45.8174C263.428 44.9048 265.039 43.7777 266.385 42.4327C267.781 41.0367 268.858 39.4261 269.611 37.5976C270.364 35.718 270.738 33.5966 270.738 31.2335C270.738 28.7104 270.254 26.4256 269.287 24.386C268.319 22.2919 266.95 20.5178 265.175 19.0673C263.4 17.5622 261.251 16.4079 258.726 15.6009C256.253 14.7939 253.46 14.3921 250.343 14.3921H226.077V70.7934H232.444V48.8785H248.568L264.933 70.7934H272.752L272.755 70.7968ZM264.289 31.4753C264.289 33.3004 263.915 34.9416 263.162 36.3888C262.463 37.8393 261.469 39.0754 260.178 40.0969C258.886 41.0639 257.357 41.8164 255.582 42.3544C253.807 42.8924 251.872 43.1614 249.777 43.1614H232.444V20.2795H249.855C254.424 20.2795 257.97 21.2738 260.498 23.2623C263.022 25.1964 264.286 27.934 264.286 31.4821L264.289 31.4753ZM287.318 20.0343V13.1868H280.226V20.0343H287.318ZM286.835 70.7968V29.1394H280.628V70.7968H286.835ZM337.676 70.7968V11.978H331.469V37.1175C330.662 35.9359 329.721 34.8088 328.648 33.7328C327.626 32.6568 326.471 31.717 325.18 30.9135C323.889 30.1065 322.438 29.4629 320.827 28.9794C319.215 28.4959 317.44 28.2541 315.505 28.2541C312.981 28.2541 310.535 28.7649 308.171 29.7864C305.806 30.7534 303.684 32.1767 301.804 34.0563C299.923 35.8814 298.417 38.139 297.29 40.8256C296.162 43.5121 295.597 46.5733 295.597 50.0124C295.597 53.4515 296.162 56.5126 297.29 59.1992C298.417 61.8858 299.923 64.1672 301.804 66.0468C303.684 67.8719 305.806 69.2713 308.171 70.2384C310.535 71.2054 312.981 71.6889 315.505 71.6889C317.44 71.6889 319.188 71.4472 320.745 70.9637C322.356 70.4801 323.807 69.8093 325.098 68.9479C326.39 68.0898 327.544 67.0955 328.566 65.965C329.643 64.838 330.61 63.6564 331.469 62.4204V70.8002L337.676 70.7968ZM331.711 49.9273C331.711 52.3448 331.282 54.5751 330.42 56.6148C329.612 58.6033 328.485 60.2956 327.033 61.6917C325.637 63.0878 324.025 64.191 322.196 64.9946C320.421 65.7471 318.568 66.1217 316.633 66.1217C314.643 66.1217 312.763 65.7471 310.991 64.9946C309.217 64.2421 307.66 63.1695 306.317 61.77C304.975 60.3195 303.899 58.5999 303.091 56.6148C302.339 54.6262 301.964 52.3993 301.964 49.9273C301.964 47.4041 302.339 45.1466 303.091 43.158C303.899 41.1184 304.945 39.4261 306.236 38.0811C307.578 36.685 309.138 35.6363 310.91 34.9382C312.685 34.1857 314.592 33.8111 316.633 33.8111C318.568 33.8111 320.421 34.2129 322.196 35.0199C324.022 35.7725 325.637 36.845 327.033 38.2445C328.485 39.6406 329.612 41.3329 330.42 43.3215C331.278 45.31 331.711 47.5131 331.711 49.9273ZM352.032 52.2631H385.083C385.138 51.8886 385.165 51.5378 385.165 51.2144V50.3291C385.165 47.2679 384.736 44.394 383.874 41.7075C383.015 39.0209 381.751 36.685 380.085 34.6965C378.42 32.7079 376.376 31.1518 373.96 30.0247C371.542 28.8432 368.803 28.2507 365.737 28.2507C362.834 28.2507 360.146 28.8159 357.676 29.943C355.258 31.0701 353.163 32.6296 351.388 34.6147C349.613 36.5488 348.216 38.8574 347.194 41.544C346.227 44.1761 345.743 46.9955 345.743 50.0056C345.743 53.2302 346.281 56.1823 347.354 58.8689C348.482 61.5555 349.988 63.8641 351.868 65.7982C353.749 67.6778 355.953 69.1556 358.477 70.2282C361.005 71.2497 363.689 71.7604 366.537 71.7604C370.513 71.7604 373.848 71.0624 376.532 69.6663C379.22 68.2158 381.612 66.3089 383.707 63.9458L379.837 60.4795C378.116 62.2535 376.209 63.6768 374.114 64.7494C372.073 65.822 369.6 66.36 366.697 66.36C364.871 66.36 363.124 66.0638 361.458 65.4747C359.792 64.8312 358.286 63.9186 356.944 62.7336C355.602 61.4976 354.498 60.0198 353.64 58.3037C352.781 56.5296 352.243 54.5173 352.028 52.2597L352.032 52.2631ZM352.032 47.6697C352.246 45.6301 352.73 43.7471 353.483 42.0309C354.236 40.3114 355.203 38.8336 356.385 37.601C357.567 36.3105 358.937 35.3196 360.497 34.6181C362.057 33.8656 363.751 33.4911 365.576 33.4911C367.672 33.4911 369.501 33.8929 371.058 34.6999C372.669 35.4524 374.015 36.4739 375.088 37.761C376.216 39.0515 377.077 40.5532 377.667 42.2727C378.311 43.9923 378.716 45.7901 378.876 47.6697H352.032Z" fill="#212121"/>
<path d="M251.314 142.265C262.198 142.265 268.647 138.397 274.448 132.193L266.548 124.215C262.116 128.243 258.164 130.821 251.716 130.821C242.041 130.821 235.35 122.765 235.35 113.094V112.934C235.35 103.264 242.201 95.3677 251.716 95.3677C257.357 95.3677 261.793 97.7853 266.146 101.732L274.046 92.6266C268.807 87.4714 262.436 83.9233 251.797 83.9233C234.464 83.9233 222.374 97.0566 222.374 113.091V113.251C222.374 129.445 234.71 142.259 251.314 142.259V142.265ZM280.437 141.298H292.691V82.4796H280.437V141.298ZM313.226 142.105C319.192 142.105 323.303 139.93 326.284 136.627V141.298H338.136V116.241C338.136 110.438 336.685 105.685 333.462 102.464C330.399 99.4027 325.562 97.6287 318.871 97.6287C311.537 97.6287 306.859 98.9975 302.104 101.095L305.166 110.442C309.118 108.991 312.422 108.106 317.096 108.106C323.222 108.106 326.366 110.925 326.366 116.002V116.728C323.303 115.679 320.159 114.954 315.805 114.954C305.568 114.954 298.394 119.305 298.394 128.73V128.89C298.394 137.43 305.085 142.105 313.226 142.105ZM316.936 133.644C312.985 133.644 310.246 131.71 310.246 128.407V128.247C310.246 124.379 313.472 122.285 318.711 122.285C321.695 122.285 324.434 122.928 326.529 123.895V126.071C326.529 130.501 322.66 133.644 316.936 133.644ZM365.853 142.265C374.478 142.265 379.316 138.963 383.506 134.369L376.332 127.116C373.347 129.936 370.527 131.71 366.415 131.71C359.724 131.71 355.452 126.391 355.452 119.785V119.625C355.452 113.261 359.806 107.861 365.931 107.861C370.285 107.861 373.024 109.713 375.766 112.614L383.264 104.558C379.234 100.046 374.155 97.3052 366.013 97.3052C352.792 97.3052 343.362 107.459 343.362 119.785V119.945C343.362 132.275 352.873 142.265 365.853 142.265ZM388.286 141.298H400.539V128.165L404.811 123.653L416.098 141.298H430.123L413.113 115.11L429.557 98.1088H414.885L400.536 113.82V82.4762H388.282V141.295L388.286 141.298ZM444.233 142.105C450.195 142.105 454.307 139.93 457.291 136.627V141.298H469.143V116.241C469.143 110.438 467.692 105.685 464.469 102.464C461.406 99.4027 456.569 97.6287 449.878 97.6287C442.544 97.6287 437.87 98.9975 433.114 101.095L436.177 110.442C440.128 108.991 443.433 108.106 448.103 108.106C454.228 108.106 457.373 110.925 457.373 116.002V116.728C454.31 115.679 451.166 114.954 446.812 114.954C436.575 114.954 429.401 119.305 429.401 128.73V128.89C429.401 137.43 436.091 142.105 444.233 142.105ZM447.94 133.644C443.991 133.644 441.252 131.71 441.252 128.407V128.247C441.252 124.379 444.479 122.285 449.715 122.285C452.699 122.285 455.438 122.928 457.533 123.895V126.071C457.533 130.501 453.663 133.644 447.94 133.644ZM476.46 141.298H488.714V117.208C488.714 111.405 491.535 108.426 496.13 108.426C500.726 108.426 503.305 111.409 503.305 117.208V141.298H515.559V117.208C515.559 111.405 518.379 108.426 522.975 108.426C527.571 108.426 530.149 111.409 530.149 117.208V141.298H542.403V113.176C542.403 102.781 536.922 97.3018 527.812 97.3018C521.929 97.3018 517.412 99.7194 513.624 104.149C511.365 99.7977 507.093 97.3018 501.452 97.3018C495.245 97.3018 491.535 100.605 488.714 104.231V98.1088H476.46V141.298ZM562.087 142.105C568.052 142.105 572.164 139.93 575.145 136.627V141.298H586.997V116.241C586.997 110.438 585.545 105.685 582.323 102.464C579.26 99.4027 574.423 97.6287 567.732 97.6287C560.397 97.6287 555.72 98.9975 550.964 101.095L554.027 110.442C557.979 108.991 561.283 108.106 565.957 108.106C572.082 108.106 575.227 110.925 575.227 116.002V116.728C572.164 115.679 569.02 114.954 564.666 114.954C554.429 114.954 547.254 119.305 547.254 128.73V128.89C547.254 137.43 553.945 142.105 562.087 142.105ZM565.797 133.644C561.845 133.644 559.106 131.71 559.106 128.407V128.247C559.106 124.379 562.332 122.285 567.572 122.285C570.556 122.285 573.295 122.928 575.39 123.895V126.071C575.39 130.501 571.52 133.644 565.797 133.644ZM609.474 142.105C618.825 142.105 626 137.754 626 128.165V128.005C626 120.109 618.985 117.208 612.942 115.195C608.268 113.585 604.156 112.454 604.156 110.04V109.88C604.156 108.188 605.689 106.897 608.67 106.897C611.814 106.897 616.086 108.429 620.358 110.925L625.032 102.464C620.358 99.321 614.39 97.4686 608.908 97.4686C600.201 97.4686 593.108 102.382 593.108 111.167V111.327C593.108 119.707 599.959 122.526 606.006 124.3C610.761 125.751 614.955 126.636 614.955 129.296V129.456C614.955 131.39 613.344 132.68 609.797 132.68C605.767 132.68 600.848 130.906 596.174 127.525L590.935 135.581C596.658 140.093 603.43 142.109 609.477 142.109L609.474 142.105Z" fill="#212121"/>
<path d="M115.882 0.0495417C98.5291 -0.563962 82.3737 4.55197 69.169 13.6489C61.4393 18.9659 54.726 25.6531 49.3671 33.3457C48.6814 34.3307 49.3944 35.6839 50.5951 35.6839H69.3054C72.662 35.6839 74.7019 34.433 77.3013 32.2653L77.3388 32.2278C87.1698 24.0512 99.0032 19.5351 111.584 19.184C112.116 19.1636 112.638 19.1602 113.17 19.1602C133.651 19.1602 152.668 30.5236 162.796 48.8094C164.389 51.6758 164.368 55.1012 162.751 57.9574C161.114 60.8307 158.208 62.5553 154.967 62.5553C153.357 62.5553 151.778 62.102 150.417 61.2704C149.079 60.4728 147.957 59.2969 147.155 57.8927L147.149 57.8688L147.128 57.8552C140.159 45.3499 127.152 37.5823 113.173 37.5823C112.375 37.5823 111.57 37.6028 110.768 37.6539C104.594 38.0322 98.6348 39.9273 93.3611 43.1345C89.7316 45.3431 85.57 46.4542 81.3503 46.4542H1.52862C-0.286129 46.4542 -0.586313 49.0548 1.17727 49.4706L21.6955 54.3173C27.1807 55.6125 32.0962 58.7005 35.7019 63.1313L36.4762 64.0686C36.5342 64.1402 36.5854 64.2084 36.6536 64.2731C37.0834 64.7775 37.5814 65.2172 38.1238 65.5819C39.3757 66.451 40.8528 66.918 42.3946 66.918H70.0866V66.8975H82.0906C82.1793 66.8975 82.2748 66.8975 82.3669 66.918C85.147 67.0577 87.354 69.4231 87.354 72.3032C87.354 73.7926 86.7707 75.1389 85.819 76.1171C84.9253 77.0374 83.7143 77.6236 82.3669 77.6884C82.2782 77.702 82.1827 77.702 82.0906 77.702H70.0866V77.6884H53.5185L53.5117 77.6373H8.52837C6.78185 77.6373 6.45778 80.1867 8.14632 80.6468L26.3211 85.514C30.3292 86.5876 33.9929 88.8916 36.9197 92.1773C37.1755 92.4534 37.4109 92.7328 37.6497 93.0191C38.0078 93.4486 38.3524 93.8951 38.6798 94.3552L39.096 94.9244C39.826 95.9401 40.7641 96.7445 41.8249 97.3C42.8926 97.8488 44.0797 98.1555 45.3078 98.1555H67.5794C79.0921 98.176 78.4474 98.9974 85.28 105.732L85.3448 105.807C92.7471 113.537 102.629 117.784 113.177 117.784C127.163 117.784 140.166 110.017 147.121 97.5114C149.441 93.3463 154.64 91.4513 159.262 93.9224C160.098 94.3689 160.858 94.9687 161.5 95.6777C164.286 98.7997 164.727 103.081 162.809 106.547C152.678 124.846 133.661 136.21 113.18 136.21C94.712 136.21 77.3047 126.973 66.6174 111.499C65.7578 110.32 64.4923 109.481 63.0562 109.212C61.7019 108.96 60.2726 108.977 59.2697 108.94L56.4555 108.926H43.7216L42.2002 108.933H41.9068L26.6213 108.984C24.7417 108.997 24.3972 111.731 26.2051 112.222L26.212 112.229L30.974 113.646L40.805 116.503C42.9847 117.123 45.0622 118.169 46.9622 119.57C47.8116 120.204 48.6303 120.906 49.4046 121.683C50.7793 123.67 52.2563 125.586 53.8221 127.426C68.0501 144.281 89.3393 155 113.085 155C133.047 155 151.273 147.427 165.037 134.99L165.044 134.983C181.366 120.245 191.405 98.677 190.6 74.8356C189.232 34.3546 156.403 1.49468 115.892 0.0597669L115.882 0.0495417Z" fill="#F0421C"/>
</svg>
