<svg width="197" height="161" viewBox="0 0 197 161" fill="none" xmlns="http://www.w3.org/2000/svg">
<path d="M119.744 0.0514595C101.813 -0.585792 85.1194 4.72818 71.4745 14.1772C63.4871 19.7001 56.5502 26.6461 51.0126 34.6365C50.3041 35.6597 51.0408 37.0652 52.2815 37.0652H71.6155C75.084 37.0652 77.1919 35.7659 79.8779 33.5143L79.9166 33.4753C90.0754 24.9822 102.303 20.2913 115.303 19.9266C115.853 19.9054 116.392 19.9019 116.942 19.9019C138.105 19.9019 157.757 31.7052 168.222 50.6988C169.868 53.6762 169.847 57.2342 168.176 60.2009C166.484 63.1854 163.481 64.9768 160.132 64.9768C158.469 64.9768 156.837 64.5059 155.43 63.6421C154.049 62.8137 152.889 61.5923 152.061 60.1337L152.053 60.1089L152.032 60.0947C144.831 47.1054 131.391 39.0371 116.946 39.0371C116.121 39.0371 115.289 39.0583 114.461 39.1115C108.08 39.5044 101.923 41.4728 96.473 44.8042C92.7226 47.0983 88.4222 48.2525 84.0619 48.2525H1.57957C-0.295666 48.2525 -0.605856 50.9537 1.21651 51.3856L22.4187 56.4199C28.0867 57.7652 33.1661 60.9727 36.8919 65.5751L37.692 66.5487C37.752 66.623 37.8048 66.6938 37.8753 66.7611C38.3195 67.2851 38.8341 67.7418 39.3946 68.1206C40.6882 69.0233 42.2145 69.5084 43.8077 69.5084H72.4227V69.4871H84.8268C84.9185 69.4871 85.0172 69.4871 85.1123 69.5084C87.9851 69.6535 90.2657 72.1105 90.2657 75.102C90.2657 76.6491 89.663 78.0475 88.6795 79.0636C87.756 80.0195 86.5047 80.6284 85.1123 80.6957C85.0207 80.7098 84.922 80.7098 84.8268 80.7098H72.4227V80.6957H55.3024L55.2953 80.6426H8.81264C7.0079 80.6426 6.67303 83.2907 8.41785 83.7686L27.1984 88.8242C31.3402 89.9394 35.1259 92.3326 38.1503 95.7454C38.4146 96.0322 38.6578 96.3225 38.9046 96.6199C39.2747 97.066 39.6307 97.5297 39.9691 98.0077L40.3991 98.5989C41.1535 99.6539 42.1228 100.489 43.2191 101.066C44.3223 101.636 45.549 101.955 46.818 101.955H69.8319C81.7284 101.976 81.0622 102.83 88.1226 109.825L88.1895 109.903C95.8386 117.932 106.05 122.344 116.949 122.344C131.401 122.344 144.838 114.275 152.025 101.286C154.422 96.9597 159.794 94.9914 164.57 97.5581C165.434 98.0218 166.22 98.6449 166.883 99.3813C169.762 102.624 170.217 107.071 168.236 110.671C157.767 129.679 138.116 141.482 116.953 141.482C97.8689 141.482 79.8814 131.888 68.8379 115.815C67.9497 114.59 66.6419 113.719 65.1579 113.44C63.7586 113.178 62.2816 113.196 61.2453 113.157L58.3373 113.142H45.1789L43.6068 113.149H43.3036L27.5086 113.203C25.5664 113.217 25.2104 116.056 27.0786 116.566L27.0856 116.573L32.0064 118.046L42.1651 121.012C44.4175 121.657 46.5642 122.744 48.5275 124.199C49.4052 124.857 50.2512 125.587 51.0513 126.394C52.4719 128.458 53.9982 130.447 55.6161 132.359C70.3184 149.866 92.3172 161 116.854 161C137.482 161 156.315 153.133 170.538 140.215L170.545 140.208C187.412 124.9 197.785 102.497 196.953 77.7325C195.54 35.6845 161.616 1.55254 119.755 0.0620804L119.744 0.0514595Z" fill="#F0421C"/>
</svg>
